<?xml version="1.0" encoding="UTF-8"?>
<svg width="100" height="100" viewBox="0 0 100 100" xmlns="http://www.w3.org/2000/svg">
  <title>Paisley Pattern</title>
  <g fill="#000000">
    <path d="M50,10 C70,10 90,30 90,50 C90,70 70,90 50,90 C30,90 10,70 10,50 C10,30 30,10 50,10 Z M50,20 C35,20 20,35 20,50 C20,65 35,80 50,80 C65,80 80,65 80,50 C80,35 65,20 50,20 Z" fill-opacity="0.05"/>
    <path d="M50,30 C42.5,30 35,37.5 35,45 C35,52.5 42.5,60 50,60 C57.5,60 65,52.5 65,45 C65,37.5 57.5,30 50,30 Z" fill-opacity="0.1"/>
    <path d="M60,45 C60,35 50,25 40,25 C30,25 20,35 20,45 C20,55 30,65 40,65 C50,65 60,55 60,45 Z M50,45 C50,40 45,35 40,35 C35,35 30,40 30,45 C30,50 35,55 40,55 C45,55 50,50 50,45 Z" fill-opacity="0.08"/>
    <path d="M75,25 C85,35 85,55 75,65 C65,75 45,75 35,65 C25,55 25,35 35,25 C45,15 65,15 75,25 Z M65,35 C70,40 70,50 65,55 C60,60 50,60 45,55 C40,50 40,40 45,35 C50,30 60,30 65,35 Z" fill-opacity="0.06"/>
    <path d="M50,15 C60,15 70,25 70,35 C70,45 60,55 50,55 C40,55 30,45 30,35 C30,25 40,15 50,15 Z M50,25 C45,25 40,30 40,35 C40,40 45,45 50,45 C55,45 60,40 60,35 C60,30 55,25 50,25 Z" fill-opacity="0.07"/>
    <path d="M60,50 C70,60 70,70 60,80 C50,90 40,90 30,80 C20,70 20,60 30,50 C40,40 50,40 60,50 Z M50,60 C55,65 55,70 50,75 C45,80 40,80 35,75 C30,70 30,65 35,60 C40,55 45,55 50,60 Z" fill-opacity="0.05"/>
    <path d="M85,35 C90,40 90,50 85,55 C80,60 70,60 65,55 C60,50 60,40 65,35 C70,30 80,30 85,35 Z M75,40 C77,42 77,48 75,50 C73,52 67,52 65,50 C63,48 63,42 65,40 C67,38 73,38 75,40 Z" fill-opacity="0.04"/>
    <path d="M35,75 C40,80 50,80 55,75 C60,70 60,60 55,55 C50,50 40,50 35,55 C30,60 30,70 35,75 Z M40,65 C42,67 48,67 50,65 C52,63 52,57 50,55 C48,53 42,53 40,55 C38,57 38,63 40,65 Z" fill-opacity="0.03"/>
  </g>
</svg> 