<?xml version="1.0" encoding="UTF-8"?>
<svg width="100" height="100" viewBox="0 0 100 100" xmlns="http://www.w3.org/2000/svg">
  <defs>
    <pattern id="small-pattern" width="100" height="100" patternUnits="userSpaceOnUse">
      <!-- Small diamond grid -->
      <path d="M0,0 L5,5 L0,10 L-5,5 Z" fill="#138808" opacity="0.05" transform="translate(10, 10)"/>
      <path d="M0,0 L5,5 L0,10 L-5,5 Z" fill="#138808" opacity="0.05" transform="translate(30, 10)"/>
      <path d="M0,0 L5,5 L0,10 L-5,5 Z" fill="#138808" opacity="0.05" transform="translate(50, 10)"/>
      <path d="M0,0 L5,5 L0,10 L-5,5 Z" fill="#138808" opacity="0.05" transform="translate(70, 10)"/>
      <path d="M0,0 L5,5 L0,10 L-5,5 Z" fill="#138808" opacity="0.05" transform="translate(90, 10)"/>
      
      <path d="M0,0 L5,5 L0,10 L-5,5 Z" fill="#138808" opacity="0.05" transform="translate(10, 30)"/>
      <path d="M0,0 L5,5 L0,10 L-5,5 Z" fill="#138808" opacity="0.05" transform="translate(30, 30)"/>
      <path d="M0,0 L5,5 L0,10 L-5,5 Z" fill="#138808" opacity="0.05" transform="translate(50, 30)"/>
      <path d="M0,0 L5,5 L0,10 L-5,5 Z" fill="#138808" opacity="0.05" transform="translate(70, 30)"/>
      <path d="M0,0 L5,5 L0,10 L-5,5 Z" fill="#138808" opacity="0.05" transform="translate(90, 30)"/>
      
      <path d="M0,0 L5,5 L0,10 L-5,5 Z" fill="#138808" opacity="0.05" transform="translate(10, 50)"/>
      <path d="M0,0 L5,5 L0,10 L-5,5 Z" fill="#138808" opacity="0.05" transform="translate(30, 50)"/>
      <path d="M0,0 L5,5 L0,10 L-5,5 Z" fill="#138808" opacity="0.05" transform="translate(50, 50)"/>
      <path d="M0,0 L5,5 L0,10 L-5,5 Z" fill="#138808" opacity="0.05" transform="translate(70, 50)"/>
      <path d="M0,0 L5,5 L0,10 L-5,5 Z" fill="#138808" opacity="0.05" transform="translate(90, 50)"/>
      
      <path d="M0,0 L5,5 L0,10 L-5,5 Z" fill="#138808" opacity="0.05" transform="translate(10, 70)"/>
      <path d="M0,0 L5,5 L0,10 L-5,5 Z" fill="#138808" opacity="0.05" transform="translate(30, 70)"/>
      <path d="M0,0 L5,5 L0,10 L-5,5 Z" fill="#138808" opacity="0.05" transform="translate(50, 70)"/>
      <path d="M0,0 L5,5 L0,10 L-5,5 Z" fill="#138808" opacity="0.05" transform="translate(70, 70)"/>
      <path d="M0,0 L5,5 L0,10 L-5,5 Z" fill="#138808" opacity="0.05" transform="translate(90, 70)"/>
      
      <path d="M0,0 L5,5 L0,10 L-5,5 Z" fill="#138808" opacity="0.05" transform="translate(10, 90)"/>
      <path d="M0,0 L5,5 L0,10 L-5,5 Z" fill="#138808" opacity="0.05" transform="translate(30, 90)"/>
      <path d="M0,0 L5,5 L0,10 L-5,5 Z" fill="#138808" opacity="0.05" transform="translate(50, 90)"/>
      <path d="M0,0 L5,5 L0,10 L-5,5 Z" fill="#138808" opacity="0.05" transform="translate(70, 90)"/>
      <path d="M0,0 L5,5 L0,10 L-5,5 Z" fill="#138808" opacity="0.05" transform="translate(90, 90)"/>
      
      <!-- Dots at intersections -->
      <circle cx="20" cy="20" r="1" fill="#FF9933" opacity="0.1"/>
      <circle cx="40" cy="20" r="1" fill="#FF9933" opacity="0.1"/>
      <circle cx="60" cy="20" r="1" fill="#FF9933" opacity="0.1"/>
      <circle cx="80" cy="20" r="1" fill="#FF9933" opacity="0.1"/>
      
      <circle cx="20" cy="40" r="1" fill="#FF9933" opacity="0.1"/>
      <circle cx="40" cy="40" r="1" fill="#FF9933" opacity="0.1"/>
      <circle cx="60" cy="40" r="1" fill="#FF9933" opacity="0.1"/>
      <circle cx="80" cy="40" r="1" fill="#FF9933" opacity="0.1"/>
      
      <circle cx="20" cy="60" r="1" fill="#FF9933" opacity="0.1"/>
      <circle cx="40" cy="60" r="1" fill="#FF9933" opacity="0.1"/>
      <circle cx="60" cy="60" r="1" fill="#FF9933" opacity="0.1"/>
      <circle cx="80" cy="60" r="1" fill="#FF9933" opacity="0.1"/>
      
      <circle cx="20" cy="80" r="1" fill="#FF9933" opacity="0.1"/>
      <circle cx="40" cy="80" r="1" fill="#FF9933" opacity="0.1"/>
      <circle cx="60" cy="80" r="1" fill="#FF9933" opacity="0.1"/>
      <circle cx="80" cy="80" r="1" fill="#FF9933" opacity="0.1"/>
      
      <!-- Paisley motifs -->
      <path d="M0,0 C2,-3 4,-3 0,-6 C-4,-3 -2,-3 0,0" fill="#FF9933" opacity="0.1" transform="translate(25, 25)"/>
      <path d="M0,0 C2,-3 4,-3 0,-6 C-4,-3 -2,-3 0,0" fill="#FF9933" opacity="0.1" transform="translate(75, 25)"/>
      <path d="M0,0 C2,-3 4,-3 0,-6 C-4,-3 -2,-3 0,0" fill="#FF9933" opacity="0.1" transform="translate(25, 75)"/>
      <path d="M0,0 C2,-3 4,-3 0,-6 C-4,-3 -2,-3 0,0" fill="#FF9933" opacity="0.1" transform="translate(75, 75)"/>
      
      <!-- Small flower motifs -->
      <g transform="translate(50, 50) scale(0.15)">
        <path d="M0,0 C10,-20 20,-20 0,-40 C-20,-20 -10,-20 0,0" fill="#000080" opacity="0.07" transform="rotate(0)"/>
        <path d="M0,0 C10,-20 20,-20 0,-40 C-20,-20 -10,-20 0,0" fill="#000080" opacity="0.07" transform="rotate(72)"/>
        <path d="M0,0 C10,-20 20,-20 0,-40 C-20,-20 -10,-20 0,0" fill="#000080" opacity="0.07" transform="rotate(144)"/>
        <path d="M0,0 C10,-20 20,-20 0,-40 C-20,-20 -10,-20 0,0" fill="#000080" opacity="0.07" transform="rotate(216)"/>
        <path d="M0,0 C10,-20 20,-20 0,-40 C-20,-20 -10,-20 0,0" fill="#000080" opacity="0.07" transform="rotate(288)"/>
      </g>
    </pattern>
  </defs>
  
  <rect width="100" height="100" fill="url(#small-pattern)"/>
</svg> 