<?xml version="1.0" encoding="UTF-8"?>
<svg width="200" height="30" viewBox="0 0 200 30" xmlns="http://www.w3.org/2000/svg">
  <defs>
    <linearGradient id="gradient-1" x1="0%" y1="0%" x2="100%" y2="0%">
      <stop offset="0%" stop-color="#FF9933" stop-opacity="1"/>
      <stop offset="50%" stop-color="#138808" stop-opacity="1"/>
      <stop offset="100%" stop-color="#FF9933" stop-opacity="1"/>
    </linearGradient>
    
    <linearGradient id="gradient-2" x1="0%" y1="0%" x2="100%" y2="0%">
      <stop offset="0%" stop-color="#138808" stop-opacity="1"/>
      <stop offset="50%" stop-color="#FF9933" stop-opacity="1"/>
      <stop offset="100%" stop-color="#138808" stop-opacity="1"/>
    </linearGradient>
  </defs>
  
  <!-- Base Line -->
  <line x1="0" y1="15" x2="200" y2="15" stroke="url(#gradient-1)" stroke-width="2" stroke-dasharray="1,1"/>
  
  <!-- Decorative Elements -->
  <g id="element" transform="translate(0, 15)">
    <!-- Triangle pattern -->
    <path d="M0,-5 L5,0 L0,5 L-5,0 Z" fill="#FF9933" opacity="0.7"/>
    
    <!-- Small flower -->
    <g transform="translate(15, 0) scale(0.2)">
      <path d="M0,0 C5,-10 10,-10 0,-20 C-10,-10 -5,-10 0,0" fill="#138808" opacity="0.7" transform="rotate(0)"/>
      <path d="M0,0 C5,-10 10,-10 0,-20 C-10,-10 -5,-10 0,0" fill="#138808" opacity="0.7" transform="rotate(72)"/>
      <path d="M0,0 C5,-10 10,-10 0,-20 C-10,-10 -5,-10 0,0" fill="#138808" opacity="0.7" transform="rotate(144)"/>
      <path d="M0,0 C5,-10 10,-10 0,-20 C-10,-10 -5,-10 0,0" fill="#138808" opacity="0.7" transform="rotate(216)"/>
      <path d="M0,0 C5,-10 10,-10 0,-20 C-10,-10 -5,-10 0,0" fill="#138808" opacity="0.7" transform="rotate(288)"/>
      <circle cx="0" cy="0" r="3" fill="#FF9933"/>
    </g>
    
    <!-- Triangle opposite -->
    <path d="M0,-5 L5,0 L0,5 L-5,0 Z" fill="#FF9933" opacity="0.7" transform="translate(30, 0)"/>
  </g>
  
  <!-- Repeat the element -->
  <use href="#element" x="40" y="0"/>
  <use href="#element" x="80" y="0"/>
  <use href="#element" x="120" y="0"/>
  <use href="#element" x="160" y="0"/>
  
  <!-- Add dot decorations -->
  <g>
    <circle cx="20" cy="5" r="1" fill="#138808" opacity="0.7"/>
    <circle cx="60" cy="5" r="1" fill="#138808" opacity="0.7"/>
    <circle cx="100" cy="5" r="1" fill="#138808" opacity="0.7"/>
    <circle cx="140" cy="5" r="1" fill="#138808" opacity="0.7"/>
    <circle cx="180" cy="5" r="1" fill="#138808" opacity="0.7"/>
    
    <circle cx="20" cy="25" r="1" fill="#138808" opacity="0.7"/>
    <circle cx="60" cy="25" r="1" fill="#138808" opacity="0.7"/>
    <circle cx="100" cy="25" r="1" fill="#138808" opacity="0.7"/>
    <circle cx="140" cy="25" r="1" fill="#138808" opacity="0.7"/>
    <circle cx="180" cy="25" r="1" fill="#138808" opacity="0.7"/>
  </g>
  
  <!-- Dotted border lines -->
  <line x1="0" y1="5" x2="200" y2="5" stroke="url(#gradient-2)" stroke-width="1" stroke-dasharray="2,2"/>
  <line x1="0" y1="25" x2="200" y2="25" stroke="url(#gradient-2)" stroke-width="1" stroke-dasharray="2,2"/>
</svg> 