<?xml version="1.0" encoding="UTF-8"?>
<svg width="200" height="200" viewBox="0 0 200 200" xmlns="http://www.w3.org/2000/svg">
  <defs>
    <radialGradient id="rangoli-gradient" cx="50%" cy="50%" r="50%" fx="50%" fy="50%">
      <stop offset="0%" stop-color="#FF9933" stop-opacity="0.7"/>
      <stop offset="25%" stop-color="#FFFFFF" stop-opacity="0.7"/>
      <stop offset="50%" stop-color="#138808" stop-opacity="0.7"/>
      <stop offset="75%" stop-color="#FFFFFF" stop-opacity="0.7"/>
      <stop offset="100%" stop-color="#000080" stop-opacity="0.7"/>
    </radialGradient>
  </defs>
  
  <!-- Outer circle -->
  <circle cx="100" cy="100" r="95" fill="none" stroke="#FF9933" stroke-width="2" stroke-dasharray="3,3"/>
  
  <!-- Main flower pattern -->
  <g transform="translate(100, 100)">
    <!-- Large petals -->
    <path d="M0,0 C20,-40 40,-40 0,-80 C-40,-40 -20,-40 0,0" fill="#FF9933" opacity="0.7" transform="rotate(0)"/>
    <path d="M0,0 C20,-40 40,-40 0,-80 C-40,-40 -20,-40 0,0" fill="#138808" opacity="0.7" transform="rotate(45)"/>
    <path d="M0,0 C20,-40 40,-40 0,-80 C-40,-40 -20,-40 0,0" fill="#FF9933" opacity="0.7" transform="rotate(90)"/>
    <path d="M0,0 C20,-40 40,-40 0,-80 C-40,-40 -20,-40 0,0" fill="#138808" opacity="0.7" transform="rotate(135)"/>
    <path d="M0,0 C20,-40 40,-40 0,-80 C-40,-40 -20,-40 0,0" fill="#FF9933" opacity="0.7" transform="rotate(180)"/>
    <path d="M0,0 C20,-40 40,-40 0,-80 C-40,-40 -20,-40 0,0" fill="#138808" opacity="0.7" transform="rotate(225)"/>
    <path d="M0,0 C20,-40 40,-40 0,-80 C-40,-40 -20,-40 0,0" fill="#FF9933" opacity="0.7" transform="rotate(270)"/>
    <path d="M0,0 C20,-40 40,-40 0,-80 C-40,-40 -20,-40 0,0" fill="#138808" opacity="0.7" transform="rotate(315)"/>
    
    <!-- Medium petals -->
    <path d="M0,0 C15,-25 30,-25 0,-50 C-30,-25 -15,-25 0,0" fill="#FFFFFF" opacity="0.6" transform="rotate(22.5)"/>
    <path d="M0,0 C15,-25 30,-25 0,-50 C-30,-25 -15,-25 0,0" fill="#FFFFFF" opacity="0.6" transform="rotate(67.5)"/>
    <path d="M0,0 C15,-25 30,-25 0,-50 C-30,-25 -15,-25 0,0" fill="#FFFFFF" opacity="0.6" transform="rotate(112.5)"/>
    <path d="M0,0 C15,-25 30,-25 0,-50 C-30,-25 -15,-25 0,0" fill="#FFFFFF" opacity="0.6" transform="rotate(157.5)"/>
    <path d="M0,0 C15,-25 30,-25 0,-50 C-30,-25 -15,-25 0,0" fill="#FFFFFF" opacity="0.6" transform="rotate(202.5)"/>
    <path d="M0,0 C15,-25 30,-25 0,-50 C-30,-25 -15,-25 0,0" fill="#FFFFFF" opacity="0.6" transform="rotate(247.5)"/>
    <path d="M0,0 C15,-25 30,-25 0,-50 C-30,-25 -15,-25 0,0" fill="#FFFFFF" opacity="0.6" transform="rotate(292.5)"/>
    <path d="M0,0 C15,-25 30,-25 0,-50 C-30,-25 -15,-25 0,0" fill="#FFFFFF" opacity="0.6" transform="rotate(337.5)"/>
    
    <!-- Center decoration -->
    <circle cx="0" cy="0" r="20" fill="url(#rangoli-gradient)"/>
    <circle cx="0" cy="0" r="15" fill="#FFFFFF" opacity="0.5"/>
    <circle cx="0" cy="0" r="10" fill="#000080" opacity="0.7"/>
    <circle cx="0" cy="0" r="5" fill="#FF9933" opacity="0.7"/>
  </g>
  
  <!-- Decorative dots -->
  <g transform="translate(100, 100)">
    <circle cx="0" cy="-90" r="3" fill="#FF9933"/>
    <circle cx="63.6" cy="-63.6" r="3" fill="#138808"/>
    <circle cx="90" cy="0" r="3" fill="#FF9933"/>
    <circle cx="63.6" cy="63.6" r="3" fill="#138808"/>
    <circle cx="0" cy="90" r="3" fill="#FF9933"/>
    <circle cx="-63.6" cy="63.6" r="3" fill="#138808"/>
    <circle cx="-90" cy="0" r="3" fill="#FF9933"/>
    <circle cx="-63.6" cy="-63.6" r="3" fill="#138808"/>
  </g>
</svg> 