<svg xmlns="http://www.w3.org/2000/svg" viewBox="0 0 400 250" width="400" height="250">
  <!-- Enhanced definitions with gradients and filters -->
  <defs>
    <!-- Background gradient -->
    <linearGradient id="backgroundGradient" x1="0%" y1="0%" x2="100%" y2="100%">
      <stop offset="0%" stop-color="#f8f9fa"/>
      <stop offset="100%" stop-color="#e9ecef"/>
    </linearGradient>
    
    <!-- Shadow filter -->
    <filter id="dropShadow" x="-20%" y="-20%" width="140%" height="140%">
      <feGaussianBlur in="SourceAlpha" stdDeviation="2"/>
      <feOffset dx="2" dy="2" result="offsetblur"/>
      <feComponentTransfer>
        <feFuncA type="linear" slope="0.3"/>
      </feComponentTransfer>
      <feMerge> 
        <feMergeNode/>
        <feMergeNode in="SourceGraphic"/> 
      </feMerge>
    </filter>
    
    <!-- Subtle glow effect -->
    <filter id="glow" x="-20%" y="-20%" width="140%" height="140%">
      <feGaussianBlur in="SourceAlpha" stdDeviation="3" result="blur"/>
      <feFlood flood-color="#ffffff" flood-opacity="0.5" result="glowColor"/>
      <feComposite in="glowColor" in2="blur" operator="in" result="softGlow"/>
      <feMerge>
        <feMergeNode in="softGlow"/>
        <feMergeNode in="SourceGraphic"/>
      </feMerge>
    </filter>

    <!-- Email icon gradient -->
    <linearGradient id="emailGradient" x1="0%" y1="0%" x2="100%" y2="100%">
      <stop offset="0%" stop-color="#1a73e8"/>
      <stop offset="100%" stop-color="#0d47a1"/>
    </linearGradient>
    
    <!-- Phone icon gradient -->
    <linearGradient id="phoneGradient" x1="0%" y1="0%" x2="100%" y2="100%">
      <stop offset="0%" stop-color="#e53935"/>
      <stop offset="100%" stop-color="#b71c1c"/>
    </linearGradient>
    
    <!-- Location icon gradient -->
    <linearGradient id="locationGradient" x1="0%" y1="0%" x2="100%" y2="100%">
      <stop offset="0%" stop-color="#2e7d32"/>
      <stop offset="100%" stop-color="#1b5e20"/>
    </linearGradient>
    
    <!-- Social icon gradient -->
    <linearGradient id="socialGradient" x1="0%" y1="0%" x2="100%" y2="100%">
      <stop offset="0%" stop-color="#7b1fa2"/>
      <stop offset="100%" stop-color="#4a148c"/>
    </linearGradient>
    
    <!-- Phone screen gradient -->
    <linearGradient id="screenGradient" x1="0%" y1="0%" x2="0%" y2="100%">
      <stop offset="0%" stop-color="#f5f5f5"/>
      <stop offset="100%" stop-color="#e0e0e0"/>
    </linearGradient>
    
    <!-- Message bubble gradients -->
    <linearGradient id="incomingGradient" x1="0%" y1="0%" x2="100%" y2="100%">
      <stop offset="0%" stop-color="#f1f3f5"/>
      <stop offset="100%" stop-color="#dee2e6"/>
    </linearGradient>
    
    <linearGradient id="outgoingGradient" x1="0%" y1="0%" x2="100%" y2="100%">
      <stop offset="0%" stop-color="#2e7d32"/>
      <stop offset="100%" stop-color="#1b5e20"/>
    </linearGradient>
  </defs>
  
  <!-- Enhanced background -->
  <rect x="0" y="0" width="400" height="250" fill="url(#backgroundGradient)" rx="10" ry="10"/>
  
  <!-- Enhanced decorative elements with subtle animation -->
  <circle cx="350" cy="40" r="20" fill="#198754" opacity="0.1">
    <animate attributeName="r" values="20;22;20" dur="4s" repeatCount="indefinite"/>
  </circle>
  <circle cx="50" cy="200" r="15" fill="#198754" opacity="0.1">
    <animate attributeName="r" values="15;17;15" dur="4s" repeatCount="indefinite" begin="1s"/>
  </circle>
  <circle cx="200" cy="30" r="10" fill="#198754" opacity="0.15">
    <animate attributeName="r" values="10;12;10" dur="4s" repeatCount="indefinite" begin="2s"/>
  </circle>
  
  <!-- Enhanced central mobile/message interface with realistic shadows -->
  <rect x="130" y="60" width="140" height="170" rx="15" ry="15" fill="#fff" stroke="#6c757d" stroke-width="2" filter="url(#dropShadow)"/>
  <rect x="135" y="65" width="130" height="160" rx="12" ry="12" fill="url(#screenGradient)"/>
  <rect x="145" y="80" width="110" height="130" rx="5" ry="5" fill="#fff"/>
  
  <!-- Enhanced speaker at top of phone -->
  <rect x="185" y="70" width="30" height="5" rx="2.5" ry="2.5" fill="#adb5bd"/>
  
  <!-- Enhanced message bubbles with shadows and gradients -->
  <!-- Incoming message bubble -->
  <rect x="150" y="90" width="70" height="25" rx="10" ry="10" fill="url(#incomingGradient)" filter="url(#dropShadow)"/>
  <text x="155" y="107" font-family="Arial, sans-serif" font-size="10" fill="#212529">Hello! Need help?</text>
  
  <!-- Outgoing message bubble -->
  <rect x="180" y="125" width="70" height="25" rx="10" ry="10" fill="url(#outgoingGradient)" filter="url(#dropShadow)"/>
  <text x="185" y="142" font-family="Arial, sans-serif" font-size="10" fill="#fff">Yes, about books</text>
  
  <!-- Incoming message bubble -->
  <rect x="150" y="160" width="80" height="25" rx="10" ry="10" fill="url(#incomingGradient)" filter="url(#dropShadow)"/>
  <text x="155" y="177" font-family="Arial, sans-serif" font-size="10" fill="#212529">We're here to help!</text>
  
  <!-- Enhanced contact icons on left with gradients and shadows -->
  <!-- Email icon -->
  <g transform="translate(60, 90)" filter="url(#dropShadow)">
    <rect x="0" y="0" width="40" height="30" rx="5" ry="5" fill="url(#emailGradient)"/>
    <polyline points="0,0 20,15 40,0" stroke="#fff" stroke-width="2" fill="none"/>
  </g>
  <text x="80" y="135" font-family="Arial, sans-serif" font-weight="600" font-size="10" text-anchor="middle" fill="#212529">Email</text>
  
  <!-- Phone icon -->
  <g transform="translate(60, 150)" filter="url(#dropShadow)">
    <rect x="10" y="0" width="20" height="35" rx="3" ry="3" fill="url(#phoneGradient)"/>
    <rect x="15" y="5" width="10" height="20" rx="1" ry="1" fill="#fff"/>
    <circle cx="20" cy="30" r="3" fill="#fff"/>
  </g>
  <text x="80" y="195" font-family="Arial, sans-serif" font-weight="600" font-size="10" text-anchor="middle" fill="#212529">Phone</text>
  
  <!-- Enhanced contact icons on right with gradients and shadows -->
  <!-- Location icon -->
  <g transform="translate(300, 90)" filter="url(#dropShadow)">
    <path d="M20,0 C9,0 0,9 0,20 C0,35 20,50 20,50 C20,50 40,35 40,20 C40,9 31,0 20,0 Z" fill="url(#locationGradient)"/>
    <circle cx="20" cy="20" r="8" fill="#fff"/>
  </g>
  <text x="320" y="150" font-family="Arial, sans-serif" font-weight="600" font-size="10" text-anchor="middle" fill="#212529">Location</text>
  
  <!-- Social icon -->
  <g transform="translate(300, 170)" filter="url(#dropShadow)">
    <rect x="5" y="0" width="30" height="30" rx="15" ry="15" fill="url(#socialGradient)"/>
    <path d="M15,10 Q20,5 25,10 Q30,15 25,20 Q20,25 15,20 Q10,15 15,10 Z" fill="#fff"/>
    <circle cx="20" cy="10" r="2" fill="#6610f2"/>
    <circle cx="20" cy="20" r="2" fill="#6610f2"/>
    <circle cx="10" cy="15" r="2" fill="#6610f2"/>
    <circle cx="30" cy="15" r="2" fill="#6610f2"/>
  </g>
  <text x="320" y="215" font-family="Arial, sans-serif" font-weight="600" font-size="10" text-anchor="middle" fill="#212529">Social</text>
  
  <!-- Enhanced title at top with shadow and glow -->
  <text x="200" y="40" font-family="Arial, sans-serif" font-size="18" font-weight="bold" text-anchor="middle" fill="#198754" filter="url(#glow)">Get in Touch</text>
  
  <!-- Enhanced animated elements -->
  <!-- Pulsing circles around phone with improved glow -->
  <circle cx="200" cy="145" r="80" fill="none" stroke="#198754" stroke-width="1.5" opacity="0.5" filter="url(#glow)">
    <animate attributeName="r" values="80;85;80" dur="3s" repeatCount="indefinite"/>
    <animate attributeName="opacity" values="0.5;0.2;0.5" dur="3s" repeatCount="indefinite"/>
  </circle>
  
  <circle cx="200" cy="145" r="95" fill="none" stroke="#198754" stroke-width="1.5" opacity="0.3" filter="url(#glow)">
    <animate attributeName="r" values="95;100;95" dur="4s" repeatCount="indefinite"/>
    <animate attributeName="opacity" values="0.3;0.1;0.3" dur="4s" repeatCount="indefinite"/>
  </circle>
  
  <!-- Enhanced typing indicator with better animation -->
  <g>
    <circle cx="160" cy="200" r="2.5" fill="#198754" filter="url(#glow)">
      <animate attributeName="opacity" values="1;0.3;1" dur="1s" repeatCount="indefinite" begin="0s"/>
      <animate attributeName="r" values="2.5;2;2.5" dur="1s" repeatCount="indefinite" begin="0s"/>
    </circle>
    <circle cx="165" cy="200" r="2.5" fill="#198754" filter="url(#glow)">
      <animate attributeName="opacity" values="1;0.3;1" dur="1s" repeatCount="indefinite" begin="0.2s"/>
      <animate attributeName="r" values="2.5;2;2.5" dur="1s" repeatCount="indefinite" begin="0.2s"/>
    </circle>
    <circle cx="170" cy="200" r="2.5" fill="#198754" filter="url(#glow)">
      <animate attributeName="opacity" values="1;0.3;1" dur="1s" repeatCount="indefinite" begin="0.4s"/>
      <animate attributeName="r" values="2.5;2;2.5" dur="1s" repeatCount="indefinite" begin="0.4s"/>
    </circle>
  </g>
</svg> 