<svg xmlns="http://www.w3.org/2000/svg" viewBox="0 0 500 400" width="500" height="400">
  <!-- Light background with gradient -->
  <defs>
    <linearGradient id="bgGradient" x1="0%" y1="0%" x2="100%" y2="100%">
      <stop offset="0%" stop-color="#f8f9fa"/>
      <stop offset="100%" stop-color="#e9ecef"/>
    </linearGradient>
    
    <!-- Pattern for Indian decorative border -->
    <pattern id="borderPattern" x="0" y="0" width="20" height="20" patternUnits="userSpaceOnUse">
      <path d="M10,0 L20,10 L10,20 L0,10 Z" fill="none" stroke="#FF9933" stroke-width="0.5" opacity="0.6"/>
      <circle cx="10" cy="10" r="3" fill="none" stroke="#138808" stroke-width="0.5" opacity="0.6"/>
    </pattern>
  </defs>
  
  <!-- Background -->
  <rect x="0" y="0" width="500" height="400" fill="url(#bgGradient)"/>
  
  <!-- Decorative border -->
  <rect x="10" y="10" width="480" height="380" fill="none" stroke="url(#borderPattern)" stroke-width="10" rx="10" ry="10"/>
  
  <!-- Traditional wooden shelf (traditional Indian wooden cabinet) -->
  <g transform="translate(250, 200)">
    <!-- Cabinet structure -->
    <rect x="-200" y="-100" width="400" height="200" fill="#8B4513" rx="5" ry="5"/>
    <rect x="-195" y="-95" width="390" height="190" fill="#A0522D" rx="3" ry="3"/>
    
    <!-- Cabinet ornate details - Indian style wood carving patterns -->
    <rect x="-180" y="-90" width="360" height="20" fill="#8B4513"/>
    <g fill="none" stroke="#FFEBCD" stroke-width="1">
      <path d="M-170,-85 C-160,-80 -150,-85 -140,-80 C-130,-85 -120,-80 -110,-85"/>
      <path d="M-100,-85 C-90,-80 -80,-85 -70,-80 C-60,-85 -50,-80 -40,-85"/>
      <path d="M-30,-85 C-20,-80 -10,-85 0,-80 C10,-85 20,-80 30,-85"/>
      <path d="M40,-85 C50,-80 60,-85 70,-80 C80,-85 90,-80 100,-85"/>
      <path d="M110,-85 C120,-80 130,-85 140,-80 C150,-85 160,-80 170,-85"/>
    </g>
    
    <!-- Shelves -->
    <rect x="-190" y="-50" width="380" height="5" fill="#8B4513"/>
    <rect x="-190" y="0" width="380" height="5" fill="#8B4513"/>
    <rect x="-190" y="50" width="380" height="5" fill="#8B4513"/>
    
    <!-- Cabinet dividers -->
    <rect x="-100" y="-95" width="5" height="190" fill="#8B4513"/>
    <rect x="95" y="-95" width="5" height="190" fill="#8B4513"/>
    <rect x="0" y="-95" width="5" height="190" fill="#8B4513"/>
    
    <!-- Cabinet handles - traditional brass style -->
    <g fill="#FFD700">
      <circle cx="-150" cy="-65" r="5"/>
      <circle cx="-50" cy="-65" r="5"/>
      <circle cx="50" cy="-65" r="5"/>
      <circle cx="150" cy="-65" r="5"/>
      
      <circle cx="-150" cy="-15" r="5"/>
      <circle cx="-50" cy="-15" r="5"/>
      <circle cx="50" cy="-15" r="5"/>
      <circle cx="150" cy="-15" r="5"/>
      
      <circle cx="-150" cy="35" r="5"/>
      <circle cx="-50" cy="35" r="5"/>
      <circle cx="50" cy="35" r="5"/>
      <circle cx="150" cy="35" r="5"/>
      
      <circle cx="-150" cy="85" r="5"/>
      <circle cx="-50" cy="85" r="5"/>
      <circle cx="50" cy="85" r="5"/>
      <circle cx="150" cy="85" r="5"/>
    </g>
  </g>
  
  <!-- Top shelf items -->
  <g transform="translate(0, 0)">
    <!-- NCERT Books stack 1 -->
    <g transform="translate(80, 80)">
      <rect x="0" y="0" width="50" height="7" fill="#FF9933" stroke="#333" stroke-width="0.5"/>
      <rect x="0" y="7" width="50" height="7" fill="#FFFFFF" stroke="#333" stroke-width="0.5"/>
      <rect x="0" y="14" width="50" height="7" fill="#138808" stroke="#333" stroke-width="0.5"/>
      <text x="25" y="11" font-family="'Tiro Devanagari Hindi', serif" font-size="5" text-anchor="middle" fill="#333">एनसीईआरटी</text>
    </g>
    
    <!-- Notebooks with traditional Indian patterns -->
    <g transform="translate(150, 75)">
      <rect x="0" y="0" width="40" height="30" fill="#FFF" stroke="#0066CC" stroke-width="1" rx="2" ry="2"/>
      <rect x="0" y="0" width="40" height="5" fill="#0066CC" stroke="none"/>
      <path d="M5,15 H35 M5,20 H35 M5,25 H25" stroke="#0066CC" stroke-width="0.5" opacity="0.5"/>
      
      <rect x="5" y="-5" width="30" height="30" fill="#FFF" stroke="#FF9933" stroke-width="1" rx="2" ry="2" transform="rotate(-10)"/>
      <rect x="5" y="-5" width="30" height="5" fill="#FF9933" stroke="none" transform="rotate(-10)"/>
      <path d="M10,10 H30 M10,15 H30 M10,20 H20" stroke="#FF9933" stroke-width="0.5" opacity="0.5" transform="rotate(-10)"/>
    </g>
    
    <!-- Traditional slate and chalk (traditional Indian learning tools) -->
    <g transform="translate(210, 85)">
      <rect x="0" y="0" width="30" height="25" fill="#333" stroke="#666" stroke-width="1" rx="1" ry="1"/>
      <rect x="2" y="2" width="26" height="21" fill="#444" stroke="none"/>
      <path d="M5,8 H25 M5,15 H20" stroke="#FFF" stroke-width="1" opacity="0.7"/>
      
      <!-- Chalk pieces -->
      <rect x="35" y="0" width="10" height="3" fill="#FFF" stroke="#CCC" stroke-width="0.2" rx="1" ry="1"/>
      <rect x="35" y="5" width="8" height="3" fill="#FFF" stroke="#CCC" stroke-width="0.2" rx="1" ry="1"/>
      <rect x="35" y="10" width="12" height="3" fill="#FFF" stroke="#CCC" stroke-width="0.2" rx="1" ry="1"/>
    </g>
    
    <!-- Compass box with geometrical tools (Indian style) -->
    <g transform="translate(265, 80)">
      <rect x="0" y="0" width="35" height="20" fill="#FFEBCD" stroke="#8B4513" stroke-width="1" rx="2" ry="2"/>
      <line x1="5" y1="0" x2="5" y2="20" stroke="#8B4513" stroke-width="0.5"/>
      <line x1="15" y1="0" x2="15" y2="20" stroke="#8B4513" stroke-width="0.5"/>
      <line x1="25" y1="0" x2="25" y2="20" stroke="#8B4513" stroke-width="0.5"/>
      
      <!-- Compass -->
      <path d="M8,5 L12,15" stroke="#666" stroke-width="0.5"/>
      <circle cx="8" cy="5" r="2" fill="#CCC" stroke="#666" stroke-width="0.2"/>
      <circle cx="12" cy="15" r="1" fill="#CCC" stroke="#666" stroke-width="0.2"/>
      
      <!-- Ruler -->
      <rect x="17" y="5" width="6" height="15" fill="#FAFAFA" stroke="#666" stroke-width="0.2"/>
      <path d="M17,7 H19 M17,9 H20 M17,11 H19 M17,13 H20 M17,15 H19 M17,17 H20" stroke="#666" stroke-width="0.2"/>
      
      <!-- Protractor -->
      <path d="M27,5 C32,5 32,15 27,15" fill="#FAFAFA" stroke="#666" stroke-width="0.2" fill-opacity="0.7"/>
      <path d="M27,10 L32,10" stroke="#666" stroke-width="0.2"/>
    </g>
    
    <!-- Traditional ink pot and feather pen -->
    <g transform="translate(315, 75)">
      <circle cx="5" cy="10" r="5" fill="#333" stroke="#666" stroke-width="0.5"/>
      <rect x="3" y="5" width="4" height="5" fill="#333" stroke="#666" stroke-width="0.2"/>
      <path d="M15,0 C12,5 12,10 15,15" stroke="#8B4513" stroke-width="1" fill="none"/>
      <path d="M15,0 C16,2 20,4 18,8 C16,12 13,12 15,15" fill="#F5DEB3" stroke="#8B4513" stroke-width="0.2"/>
    </g>
    
    <!-- Vedic Math book -->
    <g transform="translate(350, 75)">
      <rect x="0" y="0" width="35" height="25" fill="#FDF5E6" stroke="#8B4513" stroke-width="1" rx="2" ry="2"/>
      <text x="17.5" y="15" font-family="'Tiro Devanagari Hindi', serif" font-size="5" text-anchor="middle" fill="#8B4513">वैदिक गणित</text>
    </g>
  </g>
  
  <!-- Middle shelf items -->
  <g transform="translate(0, 55)">
    <!-- School uniform set with traditional colors -->
    <g transform="translate(65, 70)">
      <!-- Shirt -->
      <rect x="0" y="0" width="30" height="25" fill="#FFFFFF" stroke="#138808" stroke-width="0.5"/>
      <rect x="10" y="0" width="10" height="25" fill="#FFFFFF" stroke="#138808" stroke-width="0.5" opacity="0.5"/>
      <rect x="0" y="0" width="30" height="5" fill="#138808"/>
      
      <!-- Pants -->
      <rect x="35" y="0" width="25" height="30" fill="#000080" stroke="#000" stroke-width="0.5"/>
      <rect x="35" y="25" width="25" height="5" fill="#000080" stroke="#000" stroke-width="0.5" opacity="0.8"/>
      <line x1="47.5" y1="0" x2="47.5" y2="30" stroke="#000" stroke-width="0.5" opacity="0.5"/>
    </g>
    
    <!-- Traditional tie with school emblem -->
    <g transform="translate(130, 80)">
      <path d="M0,0 L10,0 L15,20 L5,25 L-5,20 Z" fill="#800000" stroke="#000" stroke-width="0.2"/>
      <circle cx="5" cy="10" r="3" fill="#FFD700" stroke="none"/>
      <path d="M2,10 L8,10 M5,7 L5,13" stroke="#800000" stroke-width="0.5"/>
    </g>
    
    <!-- Sanskrit and Hindi books -->
    <g transform="translate(150, 80)">
      <rect x="0" y="-5" width="40" height="25" fill="#FFC0CB" stroke="#800080" stroke-width="0.5" rx="1" ry="1"/>
      <text x="20" y="8" font-family="'Tiro Devanagari Hindi', serif" font-size="5" text-anchor="middle" fill="#800080">संस्कृत</text>
      
      <rect x="5" y="-12" width="40" height="25" fill="#E6E6FA" stroke="#4B0082" stroke-width="0.5" rx="1" ry="1" transform="rotate(5)"/>
      <text x="28" y="3" font-family="'Tiro Devanagari Hindi', serif" font-size="5" text-anchor="middle" fill="#4B0082" transform="rotate(5)">हिंदी</text>
    </g>
    
    <!-- Tabla and Flute (Indian musical instruments for school) -->
    <g transform="translate(215, 80)">
      <!-- Tabla -->
      <ellipse cx="5" cy="0" rx="7" ry="3" fill="#8B4513" stroke="#000" stroke-width="0.5"/>
      <path d="M-2,0 C-2,10 12,10 12,0" fill="#CD853F" stroke="#8B4513" stroke-width="0.5"/>
      <ellipse cx="5" cy="0" rx="5" ry="2" fill="#F5DEB3" stroke="#000" stroke-width="0.3"/>
      <circle cx="5" cy="0" r="1" fill="#8B4513"/>
      
      <!-- Flute -->
      <rect x="20" y="-5" width="30" height="3" fill="#D2B48C" stroke="#8B4513" stroke-width="0.3" rx="1.5" ry="1.5"/>
      <circle cx="25" cy="-3.5" r="0.8" fill="#F5F5DC" stroke="#8B4513" stroke-width="0.1"/>
      <circle cx="30" cy="-3.5" r="0.8" fill="#F5F5DC" stroke="#8B4513" stroke-width="0.1"/>
      <circle cx="35" cy="-3.5" r="0.8" fill="#F5F5DC" stroke="#8B4513" stroke-width="0.1"/>
      <circle cx="40" cy="-3.5" r="0.8" fill="#F5F5DC" stroke="#8B4513" stroke-width="0.1"/>
      <circle cx="45" cy="-3.5" r="0.8" fill="#F5F5DC" stroke="#8B4513" stroke-width="0.1"/>
    </g>
    
    <!-- Traditional brass bell used in Indian schools -->
    <g transform="translate(280, 75)">
      <path d="M0,0 C-5,0 -5,5 -3,5 L3,5 C5,5 5,0 0,0" fill="#B8860B" stroke="#8B4513" stroke-width="0.5"/>
      <path d="M-3,5 C-8,5 -10,15 -5,20 C0,25 10,25 15,20 C20,15 18,5 13,5" fill="#DAA520" stroke="#8B4513" stroke-width="0.5"/>
      <circle cx="0" cy="19" r="1.5" fill="#8B4513"/>
      <line x1="0" y1="20" x2="0" y2="25" stroke="#8B4513" stroke-width="1"/>
    </g>
    
    <!-- Abacus (Traditional calculation tool) -->
    <g transform="translate(320, 85)">
      <rect x="0" y="-15" width="30" height="20" fill="#8B4513" stroke="#000" stroke-width="0.5"/>
      <line x1="0" y1="-10" x2="30" y2="-10" stroke="#000" stroke-width="0.5"/>
      <line x1="0" y1="-5" x2="30" y2="-5" stroke="#000" stroke-width="0.5"/>
      <line x1="0" y1="0" x2="30" y2="0" stroke="#000" stroke-width="0.5"/>
      
      <circle cx="5" cy="-12.5" r="2" fill="#FF9933"/>
      <circle cx="15" cy="-12.5" r="2" fill="#FF9933"/>
      <circle cx="25" cy="-12.5" r="2" fill="#FF9933"/>
      
      <circle cx="10" cy="-7.5" r="2" fill="#FFFFFF"/>
      <circle cx="20" cy="-7.5" r="2" fill="#FFFFFF"/>
      
      <circle cx="5" cy="-2.5" r="2" fill="#138808"/>
      <circle cx="15" cy="-2.5" r="2" fill="#138808"/>
      <circle cx="25" cy="-2.5" r="2" fill="#138808"/>
    </g>
  </g>
  
  <!-- Bottom shelf items -->
  <g transform="translate(0, 110)">
    <!-- Cricket set (popular sport in Indian schools) -->
    <g transform="translate(70, 75)">
      <!-- Bat -->
      <path d="M0,0 C5,-5 15,-5 20,0 L25,30 C20,35 5,35 0,30 Z" fill="#F5DEB3" stroke="#8B4513" stroke-width="0.5"/>
      <rect x="10" y="30" width="5" height="20" fill="#8B4513" stroke="#000" stroke-width="0.3"/>
      
      <!-- Ball -->
      <circle cx="35" cy="15" r="5" fill="#FF0000" stroke="#8B0000" stroke-width="0.5"/>
      <path d="M32,12 C33,13 37,17 38,18 M38,12 C37,13 33,17 32,18" stroke="#FFF" stroke-width="0.5" fill="none"/>
    </g>
    
    <!-- Traditional Carrom board -->
    <g transform="translate(130, 75)">
      <rect x="0" y="0" width="40" height="40" fill="#F5DEB3" stroke="#8B4513" stroke-width="1"/>
      <rect x="5" y="5" width="30" height="30" fill="#D2B48C" stroke="#8B4513" stroke-width="0.5"/>
      
      <circle cx="20" cy="20" r="3" fill="#FFF" stroke="#000" stroke-width="0.3"/>
      <circle cx="10" cy="10" r="2" fill="#FFF" stroke="#000" stroke-width="0.2"/>
      <circle cx="30" cy="10" r="2" fill="#FFF" stroke="#000" stroke-width="0.2"/>
      <circle cx="10" cy="30" r="2" fill="#FFF" stroke="#000" stroke-width="0.2"/>
      <circle cx="30" cy="30" r="2" fill="#FFF" stroke="#000" stroke-width="0.2"/>
      
      <circle cx="15" cy="15" r="1.5" fill="#000"/>
      <circle cx="25" cy="15" r="1.5" fill="#000"/>
      <circle cx="15" cy="25" r="1.5" fill="#FF0000"/>
      <circle cx="25" cy="25" r="1.5" fill="#FF0000"/>
    </g>
    
    <!-- Map of India -->
    <g transform="translate(200, 70)">
      <path d="M10,0 C0,5 -5,15 0,25 C5,35 15,45 25,40 C35,45 45,35 50,25 C55,15 50,5 40,0 C30,-5 20,-5 10,0 Z" fill="#FFF" stroke="#000" stroke-width="0.5"/>
      <path d="M20,10 C15,15 15,25 20,30 C25,35 35,35 40,30 C45,25 45,15 40,10 C35,5 25,5 20,10 Z" fill="#FAFAFA" stroke="#000" stroke-width="0.2"/>
      <circle cx="30" cy="20" r="2" fill="#FF9933"/>
      <text x="30" y="50" font-family="'Poppins', sans-serif" font-size="5" text-anchor="middle" fill="#000">भारत</text>
    </g>
    
    <!-- Traditional Indian games - Gilli Danda and Kho Kho equipment -->
    <g transform="translate(270, 85)">
      <!-- Gilli Danda -->
      <rect x="0" y="-20" width="2" height="20" fill="#8B4513" stroke="#000" stroke-width="0.2" rx="1" ry="1"/>
      <rect x="10" y="-15" width="20" height="3" fill="#8B4513" stroke="#000" stroke-width="0.2" rx="1.5" ry="1.5"/>
      
      <!-- Kho Kho poles -->
      <rect x="40" y="-25" width="3" height="25" fill="#8B4513" stroke="#000" stroke-width="0.2"/>
      <rect x="55" y="-25" width="3" height="25" fill="#8B4513" stroke="#000" stroke-width="0.2"/>
    </g>
    
    <!-- Traditional Indian Diya lamp -->
    <g transform="translate(350, 80)">
      <path d="M0,0 C-5,0 -10,5 -5,10 C0,15 10,15 15,10 C20,5 15,0 10,0 Z" fill="#CD853F" stroke="#8B4513" stroke-width="0.5"/>
      <path d="M0,2 C-3,2 -7,5 -3,9 C0,13 8,13 11,9 C15,5 12,2 8,2 Z" fill="#8B4513"/>
      <ellipse cx="5" cy="5" rx="2" ry="3" fill="#FF9933"/>
      <ellipse cx="5" cy="3" rx="1" ry="1.5" fill="#FFFF00"/>
    </g>
  </g>
  
  <!-- Inventory items on the floor -->
  <g transform="translate(250, 325)">
    <!-- Stack of exam/test papers -->
    <g transform="translate(-100, 0)">
      <rect x="0" y="0" width="40" height="30" fill="#FFF" stroke="#666" stroke-width="0.5"/>
      <rect x="2" y="2" width="36" height="5" fill="#F0F0F0" stroke="#666" stroke-width="0.3"/>
      <path d="M5,10 H35 M5,15 H30 M5,20 H25 M5,25 H20" stroke="#666" stroke-width="0.3" opacity="0.7"/>
      <text x="20" y="7" font-family="'Tiro Devanagari Hindi', serif" font-size="4" text-anchor="middle" fill="#333">परीक्षा पत्र</text>
    </g>
    
    <!-- Science lab equipment -->
    <g transform="translate(0, 0)">
      <!-- Test tubes -->
      <rect x="-15" y="-10" width="30" height="20" fill="#8B4513" stroke="#000" stroke-width="0.5" rx="2" ry="2"/>
      <rect x="-10" y="-20" width="3" height="15" fill="#FAFAFA" stroke="#666" stroke-width="0.2" rx="1.5" ry="1.5"/>
      <rect x="0" y="-25" width="3" height="20" fill="#FAFAFA" stroke="#666" stroke-width="0.2" rx="1.5" ry="1.5"/>
      <rect x="10" y="-15" width="3" height="10" fill="#FAFAFA" stroke="#666" stroke-width="0.2" rx="1.5" ry="1.5"/>
      
      <ellipse cx="-8.5" cy="-7" rx="1.5" ry="1" fill="#0000FF" opacity="0.5"/>
      <ellipse cx="1.5" cy="-8" rx="1.5" ry="1" fill="#FF0000" opacity="0.5"/>
      <ellipse cx="11.5" cy="-7" rx="1.5" ry="1" fill="#00FF00" opacity="0.5"/>
    </g>
    
    <!-- Yoga mat rolled up (for physical education) -->
    <g transform="translate(60, 0)">
      <ellipse cx="0" cy="0" rx="5" ry="10" fill="#800080" stroke="#4B0082" stroke-width="0.5"/>
      <ellipse cx="0" cy="-10" rx="5" ry="1" fill="#800080" stroke="#4B0082" stroke-width="0.5"/>
      <ellipse cx="0" cy="10" rx="5" ry="1" fill="#800080" stroke="#4B0082" stroke-width="0.5"/>
      <path d="M-5,0 L5,0" stroke="#FFF" stroke-width="0.5" opacity="0.5"/>
    </g>
  </g>
  
  <!-- Indian decor elements -->
  <g transform="translate(0, 0)">
    <!-- Om symbol -->
    <g transform="translate(50, 40) scale(0.4)">
      <path d="M0,0 C-10,-10 -10,-30 0,-40 C10,-50 30,-50 40,-40 C50,-30 50,-10 40,0 C55,10 55,30 40,40 C30,50 10,50 0,40 C-10,30 -10,10 0,0 Z" fill="none" stroke="#FF9933" stroke-width="3"/>
      <path d="M20,-30 C10,-20 10,20 20,30" fill="none" stroke="#FF9933" stroke-width="3"/>
      <path d="M20,-20 C30,-15 30,15 20,20" fill="none" stroke="#FF9933" stroke-width="3"/>
      <path d="M20,30 C30,35 40,0 20,-20" fill="none" stroke="#FF9933" stroke-width="3"/>
    </g>
    
    <!-- Peacock feather -->
    <g transform="translate(425, 50) scale(0.5) rotate(30)">
      <path d="M0,0 C5,-10 0,-30 0,-50" fill="none" stroke="#0066CC" stroke-width="2"/>
      <ellipse cx="0" cy="-40" rx="10" ry="20" fill="none" stroke="#138808" stroke-width="1"/>
      <ellipse cx="0" cy="-40" rx="5" ry="15" fill="none" stroke="#8B4513" stroke-width="1"/>
      <circle cx="0" cy="-40" r="3" fill="#0066CC" stroke="#000080" stroke-width="0.5"/>
      <path d="M-10,-30 C-5,-40 5,-40 10,-30" fill="none" stroke="#138808" stroke-width="1"/>
    </g>
    
    <!-- Decorative diyas (traditional Indian lamps) -->
    <g transform="translate(50, 350) scale(0.7)">
      <path d="M0,0 C-5,0 -10,5 -5,10 C0,15 10,15 15,10 C20,5 15,0 10,0 Z" fill="#CD853F" stroke="#8B4513" stroke-width="0.5"/>
      <path d="M0,2 C-3,2 -7,5 -3,9 C0,13 8,13 11,9 C15,5 12,2 8,2 Z" fill="#8B4513"/>
      <ellipse cx="5" cy="5" rx="2" ry="3" fill="#FF9933"/>
      <ellipse cx="5" cy="3" rx="1" ry="1.5" fill="#FFFF00"/>
    </g>
    
    <g transform="translate(450, 350) scale(0.7)">
      <path d="M0,0 C-5,0 -10,5 -5,10 C0,15 10,15 15,10 C20,5 15,0 10,0 Z" fill="#CD853F" stroke="#8B4513" stroke-width="0.5"/>
      <path d="M0,2 C-3,2 -7,5 -3,9 C0,13 8,13 11,9 C15,5 12,2 8,2 Z" fill="#8B4513"/>
      <ellipse cx="5" cy="5" rx="2" ry="3" fill="#FF9933"/>
      <ellipse cx="5" cy="3" rx="1" ry="1.5" fill="#FFFF00"/>
    </g>
    
    <!-- Mehndi/henna pattern border -->
    <g transform="translate(250, 375)" opacity="0.4">
      <path d="M-240,0 C-230,-5 -220,5 -210,0 C-200,-5 -190,5 -180,0 C-170,-5 -160,5 -150,0 C-140,-5 -130,5 -120,0 C-110,-5 -100,5 -90,0 C-80,-5 -70,5 -60,0 C-50,-5 -40,5 -30,0 C-20,-5 -10,5 0,0 C10,-5 20,5 30,0 C40,-5 50,5 60,0 C70,-5 80,5 90,0 C100,-5 110,5 120,0 C130,-5 140,5 150,0 C160,-5 170,5 180,0 C190,-5 200,5 210,0 C220,-5 230,5 240,0" fill="none" stroke="#8B4513" stroke-width="1"/>
      
      <g stroke="#8B4513" stroke-width="0.5" fill="none">
        <path d="M-220,-5 C-220,-10 -215,-15 -210,-10 C-205,-15 -200,-10 -200,-5"/>
        <path d="M-160,-5 C-160,-10 -155,-15 -150,-10 C-145,-15 -140,-10 -140,-5"/>
        <path d="M-100,-5 C-100,-10 -95,-15 -90,-10 C-85,-15 -80,-10 -80,-5"/>
        <path d="M-40,-5 C-40,-10 -35,-15 -30,-10 C-25,-15 -20,-10 -20,-5"/>
        <path d="M20,-5 C20,-10 25,-15 30,-10 C35,-15 40,-10 40,-5"/>
        <path d="M80,-5 C80,-10 85,-15 90,-10 C95,-15 100,-10 100,-5"/>
        <path d="M140,-5 C140,-10 145,-15 150,-10 C155,-15 160,-10 160,-5"/>
        <path d="M200,-5 C200,-10 205,-15 210,-10 C215,-15 220,-10 220,-5"/>
      </g>
    </g>
  </g>
  
  <!-- Indian education-themed text -->
  <g transform="translate(250, 30)">
    <text font-family="'Tiro Devanagari Hindi', serif" font-size="16" font-weight="bold" text-anchor="middle" fill="#138808">
      <tspan x="0" y="0">विद्या धन सर्वधन प्रधानम्</tspan>
    </text>
    <text font-family="'Poppins', sans-serif" font-size="10" text-anchor="middle" fill="#333">
      <tspan x="0" y="20">(Knowledge is the supreme wealth)</tspan>
    </text>
  </g>
</svg> 